<?xml version="1.0" encoding="UTF-8" standalone="no"?> <svg xmlns="http://www.w3.org/2000/svg" xmlns:xlink="http://www.w3.org/1999/xlink" width="60px" height="60px" viewBox="0 0 60 60"> <!-- Generator: Sketch 50.2 (55047) - http://www.bohemiancoding.com/sketch --> <title>icons / hopfen</title> <desc>Created with Sketch.</desc> <defs> <path d="M5.00660694,44.1576502 C4.62946614,44.0789032 4.2535322,43.9811483 3.89057191,43.8864105 C3.59821236,43.8103789 3.30645625,43.7340456 3.01258814,43.6673671 C2.56937229,43.5668968 2.36481112,43.2793647 2.4049389,42.8123135 C2.86444724,37.4318721 5.26638151,33.3705184 9.5434598,30.7401877 C9.73655588,30.6213129 10.0035716,30.5039467 10.3574805,30.6560098 C12.1264217,31.4142137 13.9807475,31.7874322 16.0266609,31.797087 L16.5932772,31.7995007 L16.3069519,32.2882752 C15.2008734,34.1757894 14.4776682,36.1492917 14.0963034,38.3216227 C13.8380374,39.7909632 13.7432997,41.233753 13.8145038,42.6086575 C13.8504076,43.2950537 13.5996844,43.6607295 12.9488903,43.8707214 C11.5504522,44.3220835 10.1076624,44.5471612 8.59366843,44.5471612 C7.44293645,44.5471612 6.25147326,44.417123 5.00660694,44.1576502 Z M27.5770049,27.7612883 L28.2407727,27.3944057 L28.4365842,28.2938111 C28.6794629,29.4170872 28.9093679,30.4782106 29.229485,31.5314894 C29.4277102,32.1846972 29.7695506,32.5253308 30.4103882,32.7081686 C31.611808,33.0515176 32.9088706,33.3960734 34.2517935,33.5939969 C34.3905813,33.61391 34.6105298,33.6449864 34.7791872,33.8688571 L34.9264229,34.0646686 L34.7794889,34.2607819 C33.8115948,35.5533188 32.9996861,36.8165896 32.2969973,38.1224018 C31.5059068,39.5926475 30.9549795,40.9778102 30.6131391,42.3569386 C30.5235305,42.7171835 30.3458217,42.9923455 30.0365663,43.2494046 C28.2139203,44.764002 25.9921084,45.7237499 23.2441098,46.1844651 C22.1452724,46.3682081 21.0241082,46.4602305 19.86523,46.4602305 C18.7688063,46.4602305 17.6382891,46.3781646 16.4573858,46.2137312 L16.4124306,46.207697 C16.2102832,46.1811463 15.7906009,46.1262346 15.7100436,45.5940135 C14.8739979,40.0965076 15.8044797,35.6154716 18.5557972,31.8950531 C18.7072569,31.6901902 18.8913016,31.4907582 19.2129273,31.4144249 C22.2511735,30.6975557 25.0106373,29.2167501 27.5770049,27.7612883 Z M8.48779747,27.7126824 C8.10552756,27.4314862 7.78782416,27.0709396 8.04578846,26.3426053 C9.46263099,22.3506455 11.519406,19.3099856 14.333178,17.0468391 C15.5219258,16.0910135 16.8720898,15.3180257 18.3462578,14.7492974 C18.7083129,14.6093027 19.0070084,14.6569733 19.3156604,14.9028691 C22.1049937,17.1298101 24.8952322,18.8112546 27.8459817,20.0431473 C28.2427338,20.2084858 28.3842371,20.4712775 28.3057918,20.8951837 C28.0595943,22.2194005 27.9766233,23.5285316 28.0592926,24.7866733 C28.0792056,25.0868774 28.0496377,25.5216453 27.5623718,25.8260733 C24.5908041,27.6828129 21.3241614,29.4807184 17.57327,30.0609118 C17.2072926,30.1173321 16.838298,30.1339263 16.481372,30.1505205 C16.3202574,30.1574599 16.1588412,30.164701 15.9986318,30.1758643 L15.9760033,30.1767695 L15.9738913,30.1767695 C13.2283064,30.1767695 10.7096093,29.3476632 8.48779747,27.7126824 Z M30.1421657,45.8282632 C30.1472948,48.2093793 30.6261128,50.3138249 31.6066788,52.2622851 C31.7578369,52.563696 31.7243468,52.8430819 31.5040965,53.117037 C28.0721153,57.3811416 24.1242055,59.5199825 19.4343844,59.6557532 C19.4099456,59.6563566 19.3858086,59.6566583 19.3619733,59.6566583 C18.6885507,59.6566583 18.305074,59.3715399 18.0860306,58.7135046 C17.0704659,55.6616813 16.9205147,52.9432505 17.6274274,50.4022267 L17.6889768,50.1858987 C18.2558948,48.2289906 18.3811056,48.1303306 20.3648661,48.0714966 C23.9763663,47.9643886 27.0128023,47.1395063 29.6467536,45.5494807 L30.1406572,45.2513886 L30.1421657,45.8282632 Z M15.9454398,47.769784 C16.1714226,47.8032741 16.3971036,47.8633149 16.5168835,48.0711949 C16.6363617,48.2790749 16.5730021,48.5068679 16.4945568,48.702076 C15.6364861,50.8547956 15.3742978,53.2193176 15.7170434,55.7292649 C15.8090657,56.4044978 15.4503294,56.6869008 15.0876708,56.8742644 C13.2807138,57.8065564 11.2218268,58.2633494 8.81476345,58.2633494 C8.54171352,58.2633494 8.26383618,58.2576168 7.98143316,58.2455483 C6.92845607,58.2018 5.85707451,58.0838303 4.79685631,57.8946565 C4.17925055,57.7842297 4.03291993,57.3708834 3.97619795,57.0697742 C3.70314802,55.6067696 3.58427324,54.3966002 3.60267771,53.2615573 C3.59332462,51.0590551 4.05313467,48.85957 4.96883251,46.7243497 C5.22227113,46.1329929 5.59609308,45.9157598 6.2152074,45.9972223 C8.82653024,46.3402695 11.1454935,46.1586385 13.3051526,45.442071 C13.4557072,45.3919867 13.6798797,45.3397904 13.8781049,45.4668114 C14.0718044,45.5905136 14.1167595,45.805333 14.1339572,45.9558876 C14.137276,45.9860589 14.1405948,46.0162301 14.145724,46.045798 C14.4058003,47.5136299 14.4106277,47.5416892 15.9454398,47.769784 Z M41.9056999,34.1093221 C43.2100036,37.2181691 44.9855825,40.121248 47.3338119,42.9848026 C47.6711266,43.3966404 47.7115561,43.7526613 47.4725997,44.2142816 C45.3340606,48.345331 42.0061702,51.3132782 37.298548,53.2870822 C37.0571779,53.3881559 36.8094718,53.4732389 36.5702137,53.5556065 C36.283285,53.6542665 36.012347,53.747194 35.7522708,53.8654653 C35.5323222,53.9659356 35.3398296,54.0084771 35.1690602,54.0084771 C34.7134742,54.0084771 34.4153821,53.7043508 34.1791411,53.3791046 C32.5100668,51.08458 31.771776,48.6241135 31.7838445,45.4021243 L31.7838445,45.398202 C31.8094901,43.7849445 32.3151604,41.7879086 33.1373274,40.0557764 C34.2132346,37.788406 35.4294382,35.9120551 36.8550304,34.3190124 C37.1280804,34.0139809 37.427681,33.8866582 37.8247348,33.8999335 C38.7935341,33.9376476 39.8368564,33.8537715 41.011122,33.6440812 C41.3484367,33.5837387 41.6911822,33.5982209 41.9056999,34.1093221 Z M57.4857481,2.02393351 C56.6047472,8.28748778 52.4184844,12.8252458 49.1958917,15.4628176 C50.6432073,17.1101686 51.8814359,18.9101862 52.8994143,20.8565344 C55.2856595,25.4211448 55.7671929,30.2986312 54.3298339,35.3541281 C53.5794746,37.9920016 52.3792617,40.5236723 50.7623837,42.877936 C50.5176948,43.2339569 50.383131,43.4300701 50.1209427,43.4448541 C50.1112879,43.4454575 50.1010296,43.4457592 50.0913748,43.4457592 C49.8478927,43.4457592 49.6916056,43.2656368 49.4387704,42.9747858 C46.5347863,39.6333184 44.4427109,36.2375427 43.0418592,32.5934575 C42.7401465,31.8093064 42.4592521,31.6662946 41.6038968,31.8648215 C38.5635386,32.5732428 35.3892199,32.3970426 31.3109703,31.2936795 C30.7995674,31.1554951 30.6873303,30.7560276 30.6052644,30.4645732 C29.9849433,28.2548298 29.6750844,26.1696938 29.6587919,24.0902904 L29.6587919,24.0872732 C29.659697,22.7057311 29.7966746,21.4762521 30.0766639,20.3282355 C30.2857508,19.4725785 30.1490749,19.2052611 29.3456142,18.8978159 C25.68584,17.4975676 22.2466176,15.3713987 18.8315324,12.3983224 C18.7008908,12.2848785 18.4827525,12.0947995 18.4987433,11.8229564 C18.5135272,11.579776 18.6987788,11.422282 18.8782978,11.3000884 C23.3846777,8.23197265 27.8364476,6.77228693 32.4867444,6.82418151 C35.9353198,6.86611956 39.2288149,7.8319017 42.2755091,9.6946755 C43.8667415,10.6676987 45.3279358,11.7481317 46.6612039,12.9263195 C49.438167,10.7048094 53.2279794,6.78616571 53.9671753,1.52912479 C54.1038512,0.557610116 55.0020497,-0.11913132 55.9738661,0.0175445026 C56.9453807,0.154220325 57.6221222,1.05241883 57.4857481,2.02393351 Z" id="path-1"></path> <linearGradient x1="0%" y1="50%" x2="100%" y2="50%" id="linearGradient-3"> <stop stop-color="#E5A255" offset="0%"></stop> <stop stop-color="#F8CB8D" offset="37.7732117%"></stop> <stop stop-color="#FDD295" offset="59.4246749%"></stop> <stop stop-color="#E5A255" offset="100%"></stop> </linearGradient> </defs> <g id="icons-/-hopfen" stroke="none" stroke-width="1" fill="none" fill-rule="evenodd"> <mask id="mask-2" fill="white"> <use xlink:href="#path-1"></use> </mask> <g id="Combined-Shape"></g> <g id="farben-/-goldverlauf" mask="url(#mask-2)" fill="url(#linearGradient-3)"> <rect id="Rectangle-2" x="0" y="0" width="60" height="60"></rect> </g> </g> </svg> 